<?xml version="1.0" encoding="UTF-8"?>
<svg version="1.1" xmlns="http://www.w3.org/2000/svg" width="311" height="162">
<path d="M0 0 C102.63 0 205.26 0 311 0 C311 53.46 311 106.92 311 162 C208.37 162 105.74 162 0 162 C0 108.54 0 55.08 0 0 Z " fill="#FEFEFE" transform="translate(0,0)"/>
<path d="M0 0 C23.02185448 -0.21435619 45.96846 0.46438279 69 1 C69 44.89 69 88.78 69 134 C33.69 134 -1.62 134 -38 134 C-38 105.62 -38 77.24 -38 48 C-29.42 48 -20.84 48 -12 48 C-12 67.47 -12 86.94 -12 107 C-10.35 107 -8.7 107 -7 107 C-7 105.35 -7 103.7 -7 102 C-8.485 101.505 -8.485 101.505 -10 101 C-7.36 101 -4.72 101 -2 101 C-3.98 101.495 -3.98 101.495 -6 102 C-6 103.65 -6 105.3 -6 107 C-4.68 107.33 -3.36 107.66 -2 108 C-3.32 108 -4.64 108 -6 108 C-6 109.65 -6 111.3 -6 113 C-4.68 113.33 -3.36 113.66 -2 114 C-3.32 114 -4.64 114 -6 114 C-6 115.65 -6 117.3 -6 119 C-4.68 119.33 -3.36 119.66 -2 120 C-3.32 120 -4.64 120 -6 120 C-6 121.65 -6 123.3 -6 125 C-4.35 125 -2.7 125 -1 125 C-1.00222061 124.33823257 -1.00444122 123.67646515 -1.00672913 122.99464417 C-1.02877965 116.1333978 -1.04390562 109.27216143 -1.05493164 102.41088867 C-1.0599737 99.84708243 -1.06680714 97.28327909 -1.07543945 94.71948242 C-1.08751064 91.04344979 -1.09322942 87.36745502 -1.09765625 83.69140625 C-1.10281754 82.53725723 -1.10797882 81.38310822 -1.11329651 80.19398499 C-1.11337204 79.13296066 -1.11344757 78.07193634 -1.11352539 76.97875977 C-1.115746 76.03944107 -1.11796661 75.10012238 -1.12025452 74.13233948 C-1 72 -1 72 0 71 C2.33297433 70.95907063 4.66705225 70.95758277 7 71 C7 67.37 7 63.74 7 60 C8.65 60 10.3 60 12 60 C12.33 59.01 12.66 58.02 13 57 C13 57.99 13 58.98 13 60 C16.96 60 20.92 60 25 60 C25 48.45 25 36.9 25 25 C21.04 25 17.08 25 13 25 C12.67 18.73 12.34 12.46 12 6 C8.37 6 4.74 6 1 6 C0.505 3.03 0.505 3.03 0 0 Z " fill="#BDD6E9" transform="translate(143,14)"/>
<path d="M0 0 C14.85 0.33 29.7 0.66 45 1 C45 2.65 45 4.3 45 6 C46.65 6 48.3 6 50 6 C50.33 4.68 50.66 3.36 51 2 C51 3.32 51 4.64 51 6 C52.65 6 54.3 6 56 6 C56.33 4.68 56.66 3.36 57 2 C57 9.59 57 17.18 57 25 C60.96 25 64.92 25 69 25 C69 36.55 69 48.1 69 60 C63.06 60 57.12 60 51 60 C51 63.63 51 67.26 51 71 C47.535 71.495 47.535 71.495 44 72 C43.67 89.49 43.34 106.98 43 125 C41.35 125 39.7 125 38 125 C38 117.41 38 109.82 38 102 C37.67 102 37.34 102 37 102 C37 103.65 37 105.3 37 107 C35.35 107 33.7 107 32 107 C32 87.53 32 68.06 32 48 C23.42 48 14.84 48 6 48 C6.00523682 50.56966553 6.01047363 53.13933105 6.01586914 55.78686523 C6.0324045 64.25659239 6.04347101 72.72632023 6.05181217 81.19605923 C6.05704113 86.33359566 6.06413901 91.47111563 6.07543945 96.60864258 C6.08626787 101.5623141 6.09227674 106.51596974 6.09487724 111.46965218 C6.09673157 113.36397616 6.10035234 115.25829924 6.10573006 117.1526165 C6.11293989 119.79634386 6.11399097 122.44000471 6.11352539 125.08374023 C6.11712067 125.87495773 6.12071594 126.66617523 6.12442017 127.48136902 C6.11405216 132.88594784 6.11405216 132.88594784 5 134 C3.35 134 1.7 134 0 134 C0 89.78 0 45.56 0 0 Z " fill="#BCD8EB" transform="translate(99,14)"/>
<path d="M0 0 C8.25 0 16.5 0 25 0 C25 37.95 25 75.9 25 115 C16.75 115 8.5 115 0 115 C0 77.05 0 39.1 0 0 Z " fill="#0158BB" transform="translate(181,32)"/>
<path d="M0 0 C8.58 0 17.16 0 26 0 C26 28.05 26 56.1 26 85 C17.42 85 8.84 85 0 85 C0 56.95 0 28.9 0 0 Z " fill="#01B914" transform="translate(105,62)"/>
<path d="M0 0 C8.25 0 16.5 0 25 0 C25 20.13 25 40.26 25 61 C16.75 61 8.5 61 0 61 C0 40.87 0 20.74 0 0 Z " fill="#B80101" transform="translate(143,86)"/>
<path d="M0 0 C5.94 0 11.88 0 18 0 C18.495 14.355 18.495 14.355 19 29 C20.65 29.33 22.3 29.66 24 30 C24 37.26 24 44.52 24 52 C21.03 52.495 21.03 52.495 18 53 C17.67 70.49 17.34 87.98 17 106 C15.35 106 13.7 106 12 106 C12 98.41 12 90.82 12 83 C11.67 83 11.34 83 11 83 C11 84.65 11 86.3 11 88 C9.35 88 7.7 88 6 88 C6 68.2 6 48.4 6 28 C4.02 28 2.04 28 0 28 C0 18.76 0 9.52 0 0 Z " fill="#CBDBE9" transform="translate(125,33)"/>
<path d="M0 0 C2.31 0 4.62 0 7 0 C7 7.59 7 15.18 7 23 C8.65 23 10.3 23 12 23 C12 23.66 12 24.32 12 25 C10.35 25 8.7 25 7 25 C7 28.63 7 32.26 7 36 C8.65 36 10.3 36 12 36 C12.33 35.01 12.66 34.02 13 33 C13 33.99 13 34.98 13 36 C16.465 35.505 16.465 35.505 20 35 C20 35.66 20 36.32 20 37 C17.69 37 15.38 37 13 37 C13 40.3 13 43.6 13 47 C10.03 47.495 10.03 47.495 7 48 C6.98969254 49.06266586 6.97938507 50.12533173 6.96876526 51.22019958 C6.87120521 61.21220949 6.7684881 71.20415469 6.66066074 81.19605923 C6.60538692 86.33356469 6.55195993 91.47107579 6.50268555 96.60864258 C6.4551076 101.56236462 6.40276744 106.51601512 6.34705925 111.46965218 C6.32660582 113.36395561 6.3078978 115.25827868 6.29092598 117.1526165 C6.26694784 119.796397 6.2368847 122.44004098 6.20532227 125.08374023 C6.1995668 125.87495773 6.19381134 126.66617523 6.18788147 127.48136902 C6.11405216 132.88594784 6.11405216 132.88594784 5 134 C3.35 134 1.7 134 0 134 C0 89.78 0 45.56 0 0 Z " fill="#D0D7E6" transform="translate(99,14)"/>
<path d="M0 0 C1.65 0 3.3 0 5 0 C5 31.02 5 62.04 5 94 C3.35 94 1.7 94 0 94 C-0.495 91.03 -0.495 91.03 -1 88 C-2.65 88 -4.3 88 -6 88 C-6 62.92 -6 37.84 -6 12 C-4.35 12 -2.7 12 -1 12 C-0.67 8.04 -0.34 4.08 0 0 Z " fill="#E0E5E8" transform="translate(175,33)"/>
<path d="M0 0 C0.33 0 0.66 0 1 0 C1 37.95 1 75.9 1 115 C-3.29380825 115.85876165 -6.74818402 116.1212288 -11.08520508 116.11352539 C-11.77843872 116.11367142 -12.47167236 116.11381744 -13.18591309 116.1139679 C-15.46381829 116.11327451 -17.74164043 116.10550915 -20.01953125 116.09765625 C-21.60422216 116.09579003 -23.18891365 116.09436709 -24.77360535 116.09336853 C-28.9344951 116.08955943 -33.09534968 116.07974292 -37.25622559 116.06866455 C-41.50609868 116.05841582 -45.75597748 116.0538635 -50.00585938 116.04882812 C-58.33725569 116.03811916 -66.66862346 116.02106211 -75 116 C-75 115.67 -75 115.34 -75 115 C-66.42 115 -57.84 115 -49 115 C-49 106.42 -49 97.84 -49 89 C-47.35 89 -45.7 89 -44 89 C-44 87.35 -44 85.7 -44 84 C-45.485 83.505 -45.485 83.505 -47 83 C-44.36 83 -41.72 83 -39 83 C-40.98 83.495 -40.98 83.495 -43 84 C-43 85.65 -43 87.3 -43 89 C-41.68 89.33 -40.36 89.66 -39 90 C-40.32 90 -41.64 90 -43 90 C-43 91.65 -43 93.3 -43 95 C-41.68 95.33 -40.36 95.66 -39 96 C-40.32 96 -41.64 96 -43 96 C-43 97.65 -43 99.3 -43 101 C-41.68 101.33 -40.36 101.66 -39 102 C-40.32 102 -41.64 102 -43 102 C-43 103.65 -43 105.3 -43 107 C-41.35 107 -39.7 107 -38 107 C-38.00222061 106.33823257 -38.00444122 105.67646515 -38.00672913 104.99464417 C-38.02877965 98.1333978 -38.04390562 91.27216143 -38.05493164 84.41088867 C-38.0599737 81.84708243 -38.06680714 79.28327909 -38.07543945 76.71948242 C-38.08751064 73.04344979 -38.09322942 69.36745502 -38.09765625 65.69140625 C-38.10281754 64.53725723 -38.10797882 63.38310822 -38.11329651 62.19398499 C-38.11337204 61.13296066 -38.11344757 60.07193634 -38.11352539 58.97875977 C-38.115746 58.03944107 -38.11796661 57.10012238 -38.12025452 56.13233948 C-38 54 -38 54 -37 53 C-35.07332493 52.91251793 -33.14348139 52.89302666 -31.21484375 52.90234375 C-30.16159912 52.90484131 -29.10835449 52.90733887 -28.02319336 52.90991211 C-26.67491455 52.91901611 -25.32663574 52.92812012 -23.9375 52.9375 C-19.668125 52.958125 -15.39875 52.97875 -11 53 C-11 64.88 -11 76.76 -11 89 C-9.35 89 -7.7 89 -6 89 C-6 81.08 -6 73.16 -6 65 C-5.67 65 -5.34 65 -5 65 C-5 74.9 -5 84.8 -5 95 C-3.35 95 -1.7 95 0 95 C0 63.65 0 32.3 0 0 Z M-37 54 C-37 74.13 -37 94.26 -37 115 C-28.75 115 -20.5 115 -12 115 C-12 94.87 -12 74.74 -12 54 C-20.25 54 -28.5 54 -37 54 Z " fill="#C6B3AD" transform="translate(180,32)"/>
<path d="M0 0 C3.63 0 7.26 0 11 0 C11.33 3.96 11.66 7.92 12 12 C15.96 12 19.92 12 24 12 C24 23.55 24 35.1 24 47 C18.06 47 12.12 47 6 47 C5.67 42.71 5.34 38.42 5 34 C3.35 34 1.7 34 0 34 C0 26.74 0 19.48 0 12 C1.65 12 3.3 12 5 12 C5 9.69 5 7.38 5 5 C3.35 5 1.7 5 0 5 C0 3.35 0 1.7 0 0 Z " fill="#DEEDF3" transform="translate(144,27)"/>
<path d="M0 0 C0.33 0 0.66 0 1 0 C1 43.56 1 87.12 1 132 C-9.23 132 -19.46 132 -30 132 C-30 131.67 -30 131.34 -30 131 C-21.75 131 -13.5 131 -5 131 C-5 91.4 -5 51.8 -5 11 C-6.98 11 -8.96 11 -11 11 C-11 10.67 -11 10.34 -11 10 C-9.02 10 -7.04 10 -5 10 C-4.67 9.34 -4.34 8.68 -4 8 C-4 8.66 -4 9.32 -4 10 C-2.68 10 -1.36 10 0 10 C0 8.35 0 6.7 0 5 C-1.98 5 -3.96 5 -6 5 C-6 4.67 -6 4.34 -6 4 C-4.02 4 -2.04 4 0 4 C0 2.68 0 1.36 0 0 Z " fill="#CFCFD5" transform="translate(211,16)"/>
<path d="M0 0 C5.94 0 11.88 0 18 0 C18 11.22 18 22.44 18 34 C14.04 34 10.08 34 6 34 C6 30.7 6 27.4 6 24 C8.31 24 10.62 24 13 24 C13 23.34 13 22.68 13 22 C11.453125 22.2475 11.453125 22.2475 9.875 22.5 C6.51755674 22.93321848 3.37663843 23.08235703 0 23 C0 19.37 0 15.74 0 12 C1.65 12 3.3 12 5 12 C5 11.34 5 10.68 5 10 C3.35 10 1.7 10 0 10 C0 6.7 0 3.4 0 0 Z " fill="#D3E7F5" transform="translate(106,27)"/>
<path d="M0 0 C5.94 0 11.88 0 18 0 C18 9.57 18 19.14 18 29 C15.69 29 13.38 29 11 29 C11 30.98 11 32.96 11 35 C9.35 35 7.7 35 6 35 C6 32.69 6 30.38 6 28 C4.02 28 2.04 28 0 28 C0 18.76 0 9.52 0 0 Z " fill="#D2E7F4" transform="translate(125,33)"/>
<path d="M0 0 C0.33 0 0.66 0 1 0 C1.33 18.81 1.66 37.62 2 57 C2.66 57 3.32 57 4 57 C5.22288526 64.7701305 5.24326756 72.55537046 5.3515625 80.40234375 C5.37471186 81.89067449 5.39810242 83.37900149 5.42172241 84.86732483 C5.46991924 87.96953872 5.51489628 91.0717783 5.55761719 94.17407227 C5.61278619 98.15790859 5.67658316 102.14155402 5.74279213 106.1252203 C5.7927154 109.19024246 5.83789494 112.25532038 5.88163376 115.32043648 C5.9032357 116.79053637 5.92638847 118.26061429 5.9510994 119.73066521 C5.9847994 121.77471472 6.01138537 123.81887786 6.03759766 125.86303711 C6.05456696 127.02693466 6.07153625 128.19083221 6.08901978 129.38999939 C6 132 6 132 5 133 C3.35 133 1.7 133 0 133 C0 89.11 0 45.22 0 0 Z " fill="#BFC6D0" transform="translate(99,15)"/>
<path d="M0 0 C0.33 0 0.66 0 1 0 C1 37.95 1 75.9 1 115 C-4 116 -4 116 -11 116 C-11 107.09 -11 98.18 -11 89 C-9.35 89 -7.7 89 -6 89 C-6 81.08 -6 73.16 -6 65 C-5.67 65 -5.34 65 -5 65 C-5 74.9 -5 84.8 -5 95 C-3.35 95 -1.7 95 0 95 C0 63.65 0 32.3 0 0 Z " fill="#A3B2C7" transform="translate(180,32)"/>
<path d="M0 0 C3.63 0 7.26 0 11 0 C11 15.84 11 31.68 11 48 C9.35 48 7.7 48 6 48 C6 40.41 6 32.82 6 25 C5.67 25 5.34 25 5 25 C5 26.65 5 28.3 5 30 C3.35 30 1.7 30 0 30 C0 20.1 0 10.2 0 0 Z " fill="#D0D2DC" transform="translate(131,91)"/>
<path d="M0 0 C1.65 0 3.3 0 5 0 C5 13.86 5 27.72 5 42 C3.35 42 1.7 42 0 42 C-0.33 43.32 -0.66 44.64 -1 46 C-1 44.68 -1 43.36 -1 42 C-2.65 42 -4.3 42 -6 42 C-6 32.1 -6 22.2 -6 12 C-4.35 12 -2.7 12 -1 12 C-0.67 8.04 -0.34 4.08 0 0 Z " fill="#BDCFDE" transform="translate(175,33)"/>
<path d="M0 0 C4.41665288 -0.02902168 8.83328123 -0.04680608 13.25 -0.0625 C15.13138672 -0.07506836 15.13138672 -0.07506836 17.05078125 -0.08789062 C18.85869141 -0.09272461 18.85869141 -0.09272461 20.703125 -0.09765625 C22.36843262 -0.10551147 22.36843262 -0.10551147 24.06738281 -0.11352539 C26.59323683 -0.01574633 28.58650438 0.33606077 31 1 C32.99963028 1.03845443 35.00051633 1.04544281 37 1 C37 4.3 37 7.6 37 11 C24.79 11 12.58 11 0 11 C0 7.37 0 3.74 0 0 Z " fill="#C0CED3" transform="translate(106,15)"/>
<path d="M0 0 C8.25 0 16.5 0 25 0 C25.02256206 10.65693003 25.04092152 21.31384429 25.05181217 31.97079277 C25.05703824 36.91885132 25.06413091 41.86689273 25.07543945 46.81494141 C25.0862781 51.58706964 25.09227892 56.35918136 25.09487724 61.13132095 C25.09672972 62.95504135 25.10034696 64.77876082 25.10573006 66.60247421 C25.11295343 69.15020475 25.11399039 71.69786639 25.11352539 74.24560547 C25.11712067 75.00517548 25.12071594 75.76474548 25.12442017 76.54733276 C25.11405216 81.77189568 25.11405216 81.77189568 24 84 C20.7 84 17.4 84 14 84 C14 83.67 14 83.34 14 83 C16.64 83 19.28 83 22 83 C21.979375 82.195625 21.95875 81.39125 21.9375 80.5625 C22 78 22 78 23 77 C22.67 77 22.34 77 22 77 C22 71.72 22 66.44 22 61 C22.66 61 23.32 61 24 61 C24 59.35 24 57.7 24 56 C23.34 56 22.68 56 22 56 C22 38 22 20 22 2 C15.4 2 8.8 2 2 2 C2 29.06 2 56.12 2 84 C-0.5119859 81.4880141 -0.23524138 79.97367159 -0.24884033 76.54733276 C-0.24164978 75.78776276 -0.23445923 75.02819275 -0.22705078 74.24560547 C-0.22734283 73.44552063 -0.22763489 72.64543579 -0.22793579 71.82110596 C-0.22653956 69.16969047 -0.2109647 66.51855406 -0.1953125 63.8671875 C-0.19158341 62.03158726 -0.18873595 60.19598502 -0.18673706 58.36038208 C-0.1790924 53.52372768 -0.1594368 48.68719297 -0.1373291 43.85058594 C-0.11688857 38.91733418 -0.10773919 33.98406313 -0.09765625 29.05078125 C-0.07619165 19.36712639 -0.04100277 9.68359186 0 0 Z " fill="#02B804" transform="translate(106,62)"/>
<path d="M0 0 C12.21 0 24.42 0 37 0 C36.67 3.63 36.34 7.26 36 11 C34.35 11 32.7 11 31 11 C31 12.98 31 14.96 31 17 C26.71 17 22.42 17 18 17 C18 13.37 18 9.74 18 6 C13.71 6 9.42 6 5 6 C5 4.35 5 2.7 5 1 C3.35 1 1.7 1 0 1 C0 0.67 0 0.34 0 0 Z " fill="#CAD6E8" transform="translate(175,15)"/>
<path d="M0 0 C8.25 0 16.5 0 25 0 C25 37.95 25 75.9 25 115 C16.75 115 8.5 115 0 115 C0 77.05 0 39.1 0 0 Z M1 1 C0.97743192 13.59541659 0.95907498 26.19081981 0.94818783 38.78625202 C0.94296326 44.63444582 0.9358733 50.4826251 0.92456055 56.33081055 C0.91371659 61.97177969 0.90771994 67.61273485 0.90512276 73.25371361 C0.90327124 75.40874642 0.89965584 77.56377844 0.89426994 79.71880531 C0.88703954 82.73092952 0.88600991 85.7429955 0.88647461 88.75512695 C0.88287933 89.65136276 0.87928406 90.54759857 0.87557983 91.47099304 C0.8769545 92.29128998 0.87832916 93.11158691 0.87974548 93.95674133 C0.87882369 94.66928731 0.8779019 95.38183329 0.87695217 96.11597157 C0.93484018 98.22740009 0.93484018 98.22740009 2 101 C2.13281695 104.67106043 2.04323297 108.32519714 2 112 C7.61 112 13.22 112 19 112 C19 112.66 19 113.32 19 114 C20.65 114 22.3 114 24 114 C24 76.71 24 39.42 24 1 C16.41 1 8.82 1 1 1 Z " fill="#0540AE" transform="translate(181,32)"/>
<path d="M0 0 C3.63 0.33 7.26 0.66 11 1 C11 2.65 11 4.3 11 6 C15.29 6 19.58 6 24 6 C24 9.63 24 13.26 24 17 C18.06 17 12.12 17 6 17 C5.67 15.02 5.34 13.04 5 11 C3.35 11 1.7 11 0 11 C0 7.37 0 3.74 0 0 Z " fill="#C8D6E2" transform="translate(169,15)"/>
<path d="M0 0 C1.98 0 3.96 0 6 0 C6 7.26 6 14.52 6 22 C2.04 22 -1.92 22 -6 22 C-6 16.06 -6 10.12 -6 4 C-4.02 4 -2.04 4 0 4 C0 2.68 0 1.36 0 0 Z " fill="#C6DBE8" transform="translate(162,16)"/>
<path d="M0 0 C1.32 0 2.64 0 4 0 C4 3.3 4 6.6 4 10 C3.01 10.495 3.01 10.495 2 11 C2.66 11.33 3.32 11.66 4 12 C4 13.32 4 14.64 4 16 C3.01 16 2.02 16 1 16 C1 16.66 1 17.32 1 18 C1.99 18 2.98 18 4 18 C4.02482718 23.28360659 4.04292007 28.56717878 4.05493164 33.85083008 C4.05994225 35.6460835 4.06675255 37.44133287 4.07543945 39.23657227 C4.0876489 41.82569378 4.09326116 44.41476107 4.09765625 47.00390625 C4.10281754 47.79898087 4.10797882 48.59405548 4.11329651 49.41322327 C4.11375707 54.04898956 3.76884311 58.4268467 3 63 C2.34 63 1.68 63 1 63 C1 64.98 1 66.96 1 69 C0.67 69 0.34 69 0 69 C0 46.23 0 23.46 0 0 Z " fill="#D6DBE4" transform="translate(207,27)"/>
<path d="M0 0 C0.33 0 0.66 0 1 0 C1.33 25.74 1.66 51.48 2 78 C4.43775269 74.34337096 4.34686544 71.50584571 4.4140625 67.26953125 C4.43342865 66.51911057 4.4527948 65.76868988 4.4727478 64.99552917 C4.53247459 62.60130133 4.57890065 60.20702523 4.625 57.8125 C4.6631862 56.1881302 4.70223831 54.56378052 4.7421875 52.93945312 C4.83817025 48.95979895 4.92222636 44.98004999 5 41 C5.33 41 5.66 41 6 41 C6 57.83 6 74.66 6 92 C-4.23 92 -14.46 92 -25 92 C-25 91.67 -25 91.34 -25 91 C-16.75 91 -8.5 91 0 91 C0 60.97 0 30.94 0 0 Z " fill="#AABBBC" transform="translate(206,56)"/>
<path d="M0 0 C0.33 0 0.66 0 1 0 C1.33 27.06 1.66 54.12 2 82 C2.33 77.38 2.66 72.76 3 68 C3.495 67.505 3.495 67.505 4 67 C4.15980437 64.55391002 4.25929447 62.13268942 4.31640625 59.68359375 C4.33718735 58.95253922 4.35796844 58.22148468 4.37937927 57.46827698 C4.44495024 55.12478344 4.50379432 52.78117461 4.5625 50.4375 C4.60567808 48.85220145 4.64929213 47.26691471 4.69335938 45.68164062 C4.8006392 41.78787963 4.9018849 37.89400228 5 34 C5.33 34 5.66 34 6 34 C6 49.84 6 65.68 6 82 C12.27 82.66 18.54 83.32 25 84 C25.33 83.34 25.66 82.68 26 82 C26 82.99 26 83.98 26 85 C17.42 85 8.84 85 0 85 C0 56.95 0 28.9 0 0 Z " fill="#22AB29" transform="translate(105,62)"/>
<path d="M0 0 C1.65 0 3.3 0 5 0 C5 15.18 5 30.36 5 46 C3.35 46 1.7 46 0 46 C0 36.76 0 27.52 0 18 C1.32 18 2.64 18 4 18 C4 17.34 4 16.68 4 16 C2.68 16 1.36 16 0 16 C0 10.66666667 0 5.33333333 0 0 Z " fill="#E5F0F6" transform="translate(137,93)"/>
<path d="M0 0 C0.33 0 0.66 0 1 0 C1 3.63 1 7.26 1 11 C2.65 11 4.3 11 6 11 C6 7.7 6 4.4 6 1 C6.33 1 6.66 1 7 1 C7 4.3 7 7.6 7 11 C10.96 11 14.92 11 19 11 C19 9.35 19 7.7 19 6 C19.33 6 19.66 6 20 6 C20 7.65 20 9.3 20 11 C21.65 11 23.3 11 25 11 C25.33 10.34 25.66 9.68 26 9 C26 17.91 26 26.82 26 36 C25.67 36 25.34 36 25 36 C25 30.06 25 24.12 25 18 C23.35 18 21.7 18 20 18 C20 27.24 20 36.48 20 46 C21.98 46 23.96 46 26 46 C26 46.33 26 46.66 26 47 C17.75 47 9.5 47 1 47 C1 46.67 1 46.34 1 46 C6.94 46 12.88 46 19 46 C19 34.78 19 23.56 19 12 C12.73 12 6.46 12 0 12 C0 8.04 0 4.08 0 0 Z " fill="#B4D2D6" transform="translate(105,15)"/>
<path d="M0 0 C6.6 0 13.2 0 20 0 C20 15.51 20 31.02 20 47 C19.67 47 19.34 47 19 47 C18.505 26.21 18.505 26.21 18 5 C13.05 5.33 8.1 5.66 3 6 C2.67 6.66 2.34 7.32 2 8 C1.34 8 0.68 8 0 8 C0 5.36 0 2.72 0 0 Z " fill="#035FCD" transform="translate(182,33)"/>
<path d="M0 0 C3.96 0 7.92 0 12 0 C12 3.3 12 6.6 12 10 C9.69 10.33 7.38 10.66 5 11 C5 12.65 5 14.3 5 16 C3.35 16 1.7 16 0 16 C0 10.72 0 5.44 0 0 Z " fill="#D8E9F4" transform="translate(156,39)"/>
<path d="M0 0 C0.33 0 0.66 0 1 0 C1 26.73 1 53.46 1 81 C0.67 81 0.34 81 0 81 C0 63.84 0 46.68 0 29 C-0.99 29 -1.98 29 -3 29 C-3 28.34 -3 27.68 -3 27 C-2.01 27 -1.02 27 0 27 C0 25.68 0 24.36 0 23 C-0.99 22.67 -1.98 22.34 -3 22 C-2.01 21.67 -1.02 21.34 0 21 C0 19.68 0 18.36 0 17 C-0.66 16.67 -1.32 16.34 -2 16 C-1.34 16 -0.68 16 0 16 C0 14.35 0 12.7 0 11 C-1.32 11 -2.64 11 -4 11 C-4 20.57 -4 30.14 -4 40 C-4.33 40 -4.66 40 -5 40 C-5 30.43 -5 20.86 -5 11 C-6.98 11 -8.96 11 -11 11 C-11 10.67 -11 10.34 -11 10 C-9.02 10 -7.04 10 -5 10 C-4.67 9.34 -4.34 8.68 -4 8 C-4 8.66 -4 9.32 -4 10 C-2.68 10 -1.36 10 0 10 C0 8.35 0 6.7 0 5 C-1.98 5 -3.96 5 -6 5 C-6 4.67 -6 4.34 -6 4 C-4.02 4 -2.04 4 0 4 C0 2.68 0 1.36 0 0 Z " fill="#C7CFD9" transform="translate(211,16)"/>
<path d="M0 0 C3.96 0 7.92 0 12 0 C12 3.3 12 6.6 12 10 C8.04 10 4.08 10 0 10 C0 6.7 0 3.4 0 0 Z " fill="#D0E0EA" transform="translate(131,16)"/>
<path d="M0 0 C8.58 0 17.16 0 26 0 C25.67 0.66 25.34 1.32 25 2 C23.02 2 21.04 2 19 2 C19 3.32 19 4.64 19 6 C13.06 6 7.12 6 1 6 C0.67 4.02 0.34 2.04 0 0 Z " fill="#DFDFE0" transform="translate(143,14)"/>
<path d="M0 0 C1.65 0 3.3 0 5 0 C5 7.59 5 15.18 5 23 C3.35 22.67 1.7 22.34 0 22 C0 14.74 0 7.48 0 0 Z " fill="#E3E9EC" transform="translate(100,39)"/>
<path d="M0 0 C1.65 0 3.3 0 5 0 C5 7.59 5 15.18 5 23 C3.35 23 1.7 23 0 23 C0 15.41 0 7.82 0 0 Z " fill="#F1F5F6" transform="translate(175,33)"/>
<path d="M0 0 C1.65 0 3.3 0 5 0 C5 7.26 5 14.52 5 22 C3.35 22 1.7 22 0 22 C0 14.74 0 7.48 0 0 Z " fill="#EAF4F9" transform="translate(125,33)"/>
<path d="M0 0 C3.63 0 7.26 0 11 0 C11 1.65 11 3.3 11 5 C12.65 5 14.3 5 16 5 C16.33 3.68 16.66 2.36 17 1 C17 2.32 17 3.64 17 5 C18.65 5 20.3 5 22 5 C22.33 3.68 22.66 2.36 23 1 C23 14.53 23 28.06 23 42 C22.67 42 22.34 42 22 42 C22 32.1 22 22.2 22 12 C20.02 12 18.04 12 16 12 C16 10.02 16 8.04 16 6 C14.02 6 12.04 6 10 6 C10 4.35 10 2.7 10 1 C8.02 1 6.04 1 4 1 C3.67 1.66 3.34 2.32 3 3 C3 2.34 3 1.68 3 1 C2.01 0.67 1.02 0.34 0 0 Z " fill="#BECFDA" transform="translate(133,15)"/>
<path d="M0 0 C0.33 0 0.66 0 1 0 C1.74926071 3.66305234 2.2380014 6.42355152 1 10 C2.98 10 4.96 10 7 10 C6.67 11.98 6.34 13.96 6 16 C2.37 16 -1.26 16 -5 16 C-5 12.04 -5 8.08 -5 4 C-3.35 4 -1.7 4 0 4 C0 2.68 0 1.36 0 0 Z " fill="#CFD8E3" transform="translate(136,75)"/>
<path d="M0 0 C1.65 0 3.3 0 5 0 C5 4.29 5 8.58 5 13 C1.1273408 13.9681648 -2.03611362 14.07622858 -6 14 C-6 11.36 -6 8.72 -6 6 C-4.02 6 -2.04 6 0 6 C0 4.02 0 2.04 0 0 Z " fill="#D5D9D9" transform="translate(175,134)"/>
<path d="M0 0 C0.33 0 0.66 0 1 0 C1 3.63 1 7.26 1 11 C2.65 11 4.3 11 6 11 C6 9.35 6 7.7 6 6 C6.33 6 6.66 6 7 6 C7 9.63 7 13.26 7 17 C8.65 17 10.3 17 12 17 C12 17.33 12 17.66 12 18 C10.35 18 8.7 18 7 18 C7 19.65 7 21.3 7 23 C8.32 23.33 9.64 23.66 11 24 C9.68 24 8.36 24 7 24 C7 29.28 7 34.56 7 40 C6.67 40 6.34 40 6 40 C6 34.72 6 29.44 6 24 C4.35 24 2.7 24 1 24 C1 23.67 1 23.34 1 23 C2.65 23 4.3 23 6 23 C6 21.35 6 19.7 6 18 C4.02 18 2.04 18 0 18 C0 12.06 0 6.12 0 0 Z " fill="#B4D2EA" transform="translate(168,15)"/>
<path d="M0 0 C3.63 0 7.26 0 11 0 C11 3.96 11 7.92 11 12 C9.35 12 7.7 12 6 12 C5.67 13.32 5.34 14.64 5 16 C5 12.37 5 8.74 5 5 C3.35 5 1.7 5 0 5 C0 3.35 0 1.7 0 0 Z " fill="#C0DBEE" transform="translate(144,27)"/>
<path d="M0 0 C0.33 0 0.66 0 1 0 C1 6.6 1 13.2 1 20 C0.01 20 -0.98 20 -2 20 C-2 34.19 -2 48.38 -2 63 C-2.33 63 -2.66 63 -3 63 C-3.02539387 55.98910293 -3.04288536 48.97821777 -3.05493164 41.96728516 C-3.05995459 39.58316606 -3.06677413 37.19905004 -3.07543945 34.81494141 C-3.08759424 31.38443238 -3.09324877 27.95396416 -3.09765625 24.5234375 C-3.10281754 23.46071625 -3.10797882 22.397995 -3.11329651 21.30307007 C-3.11366498 16.42178272 -3.03918215 11.79677852 -2 7 C-1.34 7 -0.68 7 0 7 C-0.2784375 5.824375 -0.2784375 5.824375 -0.5625 4.625 C-1 2 -1 2 0 0 Z " fill="#D8D5DB" transform="translate(210,83)"/>
<path d="M0 0 C1.65 0 3.3 0 5 0 C5 1.32 5 2.64 5 4 C4.01 4 3.02 4 2 4 C2 4.66 2 5.32 2 6 C2.99 6 3.98 6 5 6 C5 11.28 5 16.56 5 22 C3.35 22 1.7 22 0 22 C0 14.74 0 7.48 0 0 Z " fill="#EBE6EF" transform="translate(131,99)"/>
<path d="M0 0 C5.94 0 11.88 0 18 0 C17.67 1.65 17.34 3.3 17 5 C11.33357449 6.22517308 5.76291482 6.09228867 0 6 C0 4.02 0 2.04 0 0 Z " fill="#CCD5DF" transform="translate(194,15)"/>
<path d="M0 0 C1.32 0 2.64 0 4 0 C4 3.3 4 6.6 4 10 C3.01 10.495 3.01 10.495 2 11 C2.66 11.33 3.32 11.66 4 12 C4 13.32 4 14.64 4 16 C3.01 16 2.02 16 1 16 C1.16749756 16.50305664 1.33499512 17.00611328 1.50756836 17.52441406 C2.17959015 20.90284787 2.01081811 24.1880692 1.87890625 27.609375 C1.85529526 28.33618469 1.83168427 29.06299438 1.80735779 29.81182861 C1.73101128 32.12476558 1.64686319 34.43734293 1.5625 36.75 C1.50925021 38.3215972 1.45651002 39.89321176 1.40429688 41.46484375 C1.27543568 45.31012196 1.13957873 49.15509651 1 53 C0.67 53 0.34 53 0 53 C0 35.51 0 18.02 0 0 Z " fill="#E8E7F1" transform="translate(207,27)"/>
<path d="M0 0 C1.98 0 3.96 0 6 0 C6 1.65 6 3.3 6 5 C7.98 5 9.96 5 12 5 C12 6.65 12 8.3 12 10 C8.04 10 4.08 10 0 10 C0 6.7 0 3.4 0 0 Z " fill="#D3E0E8" transform="translate(112,16)"/>
<path d="M0 0 C2.31 0 4.62 0 7 0 C6.67 5.94 6.34 11.88 6 18 C4.35 17.67 2.7 17.34 1 17 C0.67 11.39 0.34 5.78 0 0 Z " fill="#E2E7EB" transform="translate(99,14)"/>
<path d="M0 0 C1.65 0 3.3 0 5 0 C5 5.61 5 11.22 5 17 C3.35 17 1.7 17 0 17 C0 11.39 0 5.78 0 0 Z " fill="#EEF5F8" transform="translate(169,45)"/>
<path d="M0 0 C5.94 0 11.88 0 18 0 C18 1.98 18 3.96 18 6 C13.71 6 9.42 6 5 6 C5 4.35 5 2.7 5 1 C3.35 1 1.7 1 0 1 C0 0.67 0 0.34 0 0 Z " fill="#C6D0D8" transform="translate(175,15)"/>
<path d="M0 0 C1.65 0 3.3 0 5 0 C5 5.61 5 11.22 5 17 C3.35 17 1.7 17 0 17 C0 11.39 0 5.78 0 0 Z " fill="#E2DDE3" transform="translate(131,122)"/>
<path d="M0 0 C2.64 0 5.28 0 8 0 C6.68 0.33 5.36 0.66 4 1 C4 2.65 4 4.3 4 6 C5.32 6.33 6.64 6.66 8 7 C6.68 7 5.36 7 4 7 C4 8.65 4 10.3 4 12 C5.32 12.33 6.64 12.66 8 13 C6.68 13 5.36 13 4 13 C4 14.65 4 16.3 4 18 C5.32 18.33 6.64 18.66 8 19 C6.68 19 5.36 19 4 19 C4 20.65 4 22.3 4 24 C5.32 24.33 6.64 24.66 8 25 C6.68 25 5.36 25 4 25 C4 27.31 4 29.62 4 32 C3.67 32 3.34 32 3 32 C3 29.69 3 27.38 3 25 C2.01 24.67 1.02 24.34 0 24 C0.99 24 1.98 24 3 24 C3 22.35 3 20.7 3 19 C2.01 18.67 1.02 18.34 0 18 C0.99 18 1.98 18 3 18 C3 16.35 3 14.7 3 13 C2.01 12.67 1.02 12.34 0 12 C0.99 12 1.98 12 3 12 C3 10.35 3 8.7 3 7 C1.35 7 -0.3 7 -2 7 C-2 6.67 -2 6.34 -2 6 C-0.35 6 1.3 6 3 6 C3 4.35 3 2.7 3 1 C2.01 0.67 1.02 0.34 0 0 Z " fill="#B8BAC4" transform="translate(133,115)"/>
<path d="M0 0 C3.96 0 7.92 0 12 0 C12 1.65 12 3.3 12 5 C8.04 5 4.08 5 0 5 C0 3.35 0 1.7 0 0 Z " fill="#DBE9F4" transform="translate(156,69)"/>
<path d="M0 0 C3.96 0 7.92 0 12 0 C12 1.65 12 3.3 12 5 C8.04 5 4.08 5 0 5 C0 3.35 0 1.7 0 0 Z " fill="#DDEDF6" transform="translate(156,33)"/>
<path d="M0 0 C3.96 0 7.92 0 12 0 C12 1.65 12 3.3 12 5 C8.04 5 4.08 5 0 5 C0 3.35 0 1.7 0 0 Z " fill="#EAF5FA" transform="translate(131,27)"/>
<path d="M0 0 C3.96 0 7.92 0 12 0 C12 1.65 12 3.3 12 5 C8.04 5 4.08 5 0 5 C0 3.35 0 1.7 0 0 Z " fill="#ECF5FA" transform="translate(112,27)"/>
<path d="M0 0 C0.33 0 0.66 0 1 0 C1 3.63 1 7.26 1 11 C-0.65 11 -2.3 11 -4 11 C-4 20.57 -4 30.14 -4 40 C-4.33 40 -4.66 40 -5 40 C-5 30.43 -5 20.86 -5 11 C-6.98 11 -8.96 11 -11 11 C-11 10.67 -11 10.34 -11 10 C-9.02 10 -7.04 10 -5 10 C-4.67 9.34 -4.34 8.68 -4 8 C-4 8.66 -4 9.32 -4 10 C-2.68 10 -1.36 10 0 10 C0 8.35 0 6.7 0 5 C-1.98 5 -3.96 5 -6 5 C-6 4.67 -6 4.34 -6 4 C-4.02 4 -2.04 4 0 4 C0 2.68 0 1.36 0 0 Z " fill="#B9CBCE" transform="translate(211,16)"/>
<path d="M0 0 C0.33 0 0.66 0 1 0 C2.27041977 9.04039783 3.34915606 17.84435229 3 27 C2.01 27 1.02 27 0 27 C0 18.09 0 9.18 0 0 Z " fill="#C0C7CE" transform="translate(100,120)"/>
<path d="M0 0 C1.65 0 3.3 0 5 0 C5 3.63 5 7.26 5 11 C3.35 11 1.7 11 0 11 C0 7.37 0 3.74 0 0 Z " fill="#EDF4F7" transform="translate(106,39)"/>
<path d="M0 0 C3.96 0 7.92 0 12 0 C12 1.65 12 3.3 12 5 C8.04 4.67 4.08 4.34 0 4 C0 2.68 0 1.36 0 0 Z " fill="#EFF4F7" transform="translate(156,75)"/>
<path d="M0 0 C1.98 0 3.96 0 6 0 C6 1.98 6 3.96 6 6 C4.35 6 2.7 6 1 6 C1 7.65 1 9.3 1 11 C0.67 11 0.34 11 0 11 C0 9.35 0 7.7 0 6 C-3.96 6 -7.92 6 -12 6 C-12 5.67 -12 5.34 -12 5 C-8.04 5 -4.08 5 0 5 C0 3.35 0 1.7 0 0 Z " fill="#C3D8E8" transform="translate(143,21)"/>
<path d="M0 0 C0 3.96 0 7.92 0 12 C-1.65 12 -3.3 12 -5 12 C-5 8.37 -5 4.74 -5 1 C-1 0 -1 0 0 0 Z " fill="#D9E0E8" transform="translate(142,127)"/>
<path d="M0 0 C0 3.96 0 7.92 0 12 C-1.65 12 -3.3 12 -5 12 C-5 8.37 -5 4.74 -5 1 C-1 0 -1 0 0 0 Z " fill="#DDE8F0" transform="translate(142,115)"/>
<path d="M0 0 C1.98 0 3.96 0 6 0 C6 6.6 6 13.2 6 20 C5.67 20 5.34 20 5 20 C5 15.38 5 10.76 5 6 C3.35 6 1.7 6 0 6 C0 4.02 0 2.04 0 0 Z " fill="#ABB3C6" transform="translate(175,127)"/>
<path d="M0 0 C3.96 0 7.92 0 12 0 C12 1.32 12 2.64 12 4 C8.04 4 4.08 4 0 4 C0 2.68 0 1.36 0 0 Z " fill="#EDF4F8" transform="translate(156,81)"/>
<path d="M0 0 C1.65 0 3.3 0 5 0 C5 3.3 5 6.6 5 10 C3.35 10 1.7 10 0 10 C0 6.7 0 3.4 0 0 Z " fill="#F3FBFD" transform="translate(156,45)"/>
<path d="M0 0 C1.258125 -0.020625 2.51625 -0.04125 3.8125 -0.0625 C4.52019531 -0.07410156 5.22789063 -0.08570313 5.95703125 -0.09765625 C8 0 8 0 11 1 C11 1.99 11 2.98 11 4 C7.37 4.33 3.74 4.66 0 5 C0 3.35 0 1.7 0 0 Z " fill="#F3F9F9" transform="translate(112,51)"/>
<path d="M0 0 C0.99 0 1.98 0 3 0 C3 7.26 3 14.52 3 22 C2.67 22 2.34 22 2 22 C1.67 19.03 1.34 16.06 1 13 C0.67 13 0.34 13 0 13 C0 8.71 0 4.42 0 0 Z " fill="#C8C9CC" transform="translate(208,121)"/>
<path d="M0 0 C3.96 0 7.92 0 12 0 C12 1.32 12 2.64 12 4 C8.04 4 4.08 4 0 4 C0 2.68 0 1.36 0 0 Z " fill="#F5FBFB" transform="translate(131,39)"/>
<path d="M0 0 C2.31 0 4.62 0 7 0 C6.67 2.31 6.34 4.62 6 7 C4.35 7 2.7 7 1 7 C0.67 4.69 0.34 2.38 0 0 Z " fill="#DCE1E5" transform="translate(99,14)"/>
<path d="M0 0 C2.475 0.495 2.475 0.495 5 1 C4.67 3.31 4.34 5.62 4 8 C2.68 8 1.36 8 0 8 C0 5.36 0 2.72 0 0 Z " fill="#D4D3D4" transform="translate(131,139)"/>
<path d="M0 0 C1.65 0 3.3 0 5 0 C5 3.3 5 6.6 5 10 C4.34 10 3.68 10 3 10 C3 8.68 3 7.36 3 6 C2.01 5.67 1.02 5.34 0 5 C0 3.35 0 1.7 0 0 Z " fill="#E4E2E2" transform="translate(175,134)"/>
<path d="M0 0 C2.64 0 5.28 0 8 0 C6.68 0.33 5.36 0.66 4 1 C4 2.65 4 4.3 4 6 C5.32 6 6.64 6 8 6 C8 6.66 8 7.32 8 8 C6.68 8 5.36 8 4 8 C3.67 9.32 3.34 10.64 3 12 C3 10.35 3 8.7 3 7 C2.01 6.67 1.02 6.34 0 6 C0.99 6 1.98 6 3 6 C3 4.68 3 3.36 3 2 C2.01 2 1.02 2 0 2 C0 1.34 0 0.68 0 0 Z " fill="#C7CAD3" transform="translate(133,103)"/>
<path d="M0 0 C0.66 0 1.32 0 2 0 C2 3.63 2 7.26 2 11 C1.01 11 0.02 11 -1 11 C-1.0270043 9.54176788 -1.04639787 8.08339325 -1.0625 6.625 C-1.07410156 5.81289063 -1.08570313 5.00078125 -1.09765625 4.1640625 C-1 2 -1 2 0 0 Z " fill="#DCE0EB" transform="translate(209,45)"/>
<path d="M0 0 C1.98 0 3.96 0 6 0 C6 1.65 6 3.3 6 5 C4.02 5 2.04 5 0 5 C0 3.35 0 1.7 0 0 Z " fill="#EEF7F9" transform="translate(137,69)"/>
<path d="M0 0 C1.98 0 3.96 0 6 0 C6 1.65 6 3.3 6 5 C4.02 5 2.04 5 0 5 C0 3.35 0 1.7 0 0 Z " fill="#F0F7FB" transform="translate(137,63)"/>
<path d="M0 0 C1.98 0 3.96 0 6 0 C6 1.65 6 3.3 6 5 C4.02 5 2.04 5 0 5 C0 3.35 0 1.7 0 0 Z " fill="#F0F9FB" transform="translate(156,27)"/>
<path d="M0 0 C1.98 0 3.96 0 6 0 C6 1.65 6 3.3 6 5 C4.02 5 2.04 5 0 5 C0 3.35 0 1.7 0 0 Z " fill="#F2F8FC" transform="translate(181,21)"/>
<path d="M0 0 C1.98 0 3.96 0 6 0 C6 1.65 6 3.3 6 5 C4.35 5 2.7 5 1 5 C0.67 3.35 0.34 1.7 0 0 Z " fill="#F0F7FA" transform="translate(137,57)"/>
<path d="M0 0 C1.98 0 3.96 0 6 0 C5.67 1.65 5.34 3.3 5 5 C3.35 5 1.7 5 0 5 C0 3.35 0 1.7 0 0 Z " fill="#F2FAFC" transform="translate(156,21)"/>
<path d="M0 0 C2.64 0 5.28 0 8 0 C6.68 0.33 5.36 0.66 4 1 C4 2.65 4 4.3 4 6 C5.32 6.33 6.64 6.66 8 7 C6.68 7 5.36 7 4 7 C4 9.31 4 11.62 4 14 C3.67 14 3.34 14 3 14 C3 11.69 3 9.38 3 7 C2.01 6.67 1.02 6.34 0 6 C0.99 6 1.98 6 3 6 C3 4.35 3 2.7 3 1 C2.01 0.67 1.02 0.34 0 0 Z " fill="#B3B3B8" transform="translate(133,133)"/>
<path d="M0 0 C2.475 0.495 2.475 0.495 5 1 C5 2.65 5 4.3 5 6 C3.35 6 1.7 6 0 6 C0 4.02 0 2.04 0 0 Z " fill="#E8E2EA" transform="translate(131,115)"/>
<path d="M0 0 C1.65 0 3.3 0 5 0 C5 1.65 5 3.3 5 5 C3.35 5 1.7 5 0 5 C0 3.35 0 1.7 0 0 Z " fill="#DCE3E5" transform="translate(169,134)"/>
<path d="M0 0 C1.65 0 3.3 0 5 0 C5 1.65 5 3.3 5 5 C3.35 5 1.7 5 0 5 C0 3.35 0 1.7 0 0 Z " fill="#E3E6EB" transform="translate(169,128)"/>
<path d="M0 0 C1.65 0 3.3 0 5 0 C5 1.65 5 3.3 5 5 C3.35 5 1.7 5 0 5 C0 3.35 0 1.7 0 0 Z " fill="#E7EBEF" transform="translate(169,122)"/>
<path d="M0 0 C1.65 0 3.3 0 5 0 C5 1.65 5 3.3 5 5 C3.35 5 1.7 5 0 5 C0 3.35 0 1.7 0 0 Z " fill="#F5F9FB" transform="translate(169,69)"/>
<path d="M0 0 C1.65 0 3.3 0 5 0 C5 1.65 5 3.3 5 5 C3.35 5 1.7 5 0 5 C0 3.35 0 1.7 0 0 Z " fill="#F4FBFB" transform="translate(150,69)"/>
<path d="M0 0 C1.65 0 3.3 0 5 0 C5 1.65 5 3.3 5 5 C3.35 5 1.7 5 0 5 C0 3.35 0 1.7 0 0 Z " fill="#F2FAFA" transform="translate(144,69)"/>
<path d="M0 0 C1.65 0 3.3 0 5 0 C5 1.65 5 3.3 5 5 C3.35 5 1.7 5 0 5 C0 3.35 0 1.7 0 0 Z " fill="#F7F9F8" transform="translate(175,69)"/>
<path d="M0 0 C1.65 0 3.3 0 5 0 C5 1.65 5 3.3 5 5 C3.35 5 1.7 5 0 5 C0 3.35 0 1.7 0 0 Z " fill="#F5FAFA" transform="translate(169,63)"/>
<path d="M0 0 C1.65 0 3.3 0 5 0 C5 1.65 5 3.3 5 5 C3.35 5 1.7 5 0 5 C0 3.35 0 1.7 0 0 Z " fill="#F6F9F8" transform="translate(175,63)"/>
<path d="M0 0 C1.65 0 3.3 0 5 0 C5 1.65 5 3.3 5 5 C3.35 5 1.7 5 0 5 C0 3.35 0 1.7 0 0 Z " fill="#F4FAFD" transform="translate(156,63)"/>
<path d="M0 0 C1.65 0 3.3 0 5 0 C5 1.65 5 3.3 5 5 C3.35 5 1.7 5 0 5 C0 3.35 0 1.7 0 0 Z " fill="#F5FAFC" transform="translate(150,63)"/>
<path d="M0 0 C1.65 0 3.3 0 5 0 C5 1.65 5 3.3 5 5 C3.35 5 1.7 5 0 5 C0 3.35 0 1.7 0 0 Z " fill="#F4FAFB" transform="translate(144,63)"/>
<path d="M0 0 C1.65 0 3.3 0 5 0 C5 1.65 5 3.3 5 5 C3.35 5 1.7 5 0 5 C0 3.35 0 1.7 0 0 Z " fill="#F3F9FC" transform="translate(156,57)"/>
<path d="M0 0 C1.65 0 3.3 0 5 0 C5 1.65 5 3.3 5 5 C3.35 5 1.7 5 0 5 C0 3.35 0 1.7 0 0 Z " fill="#F6FAF8" transform="translate(175,57)"/>
<path d="M0 0 C0 0.66 0 1.32 0 2 C-1.65 2 -3.3 2 -5 2 C-5 3.32 -5 4.64 -5 6 C-5.66 6 -6.32 6 -7 6 C-7 4.68 -7 3.36 -7 2 C-7.99 1.67 -8.98 1.34 -10 1 C-6.52674819 -0.1577506 -3.63932552 -0.06866652 0 0 Z " fill="#D7E8F2" transform="translate(168,49)"/>
<path d="M0 0 C1.65 0 3.3 0 5 0 C5 1.65 5 3.3 5 5 C3.35 5 1.7 5 0 5 C0 3.35 0 1.7 0 0 Z " fill="#F4F8F8" transform="translate(106,51)"/>
<path d="M0 0 C1.65 0 3.3 0 5 0 C5 1.65 5 3.3 5 5 C3.35 5 1.7 5 0 5 C0 3.35 0 1.7 0 0 Z " fill="#F5F9F9" transform="translate(169,33)"/>
<path d="M0 0 C1.65 0 3.3 0 5 0 C5 1.65 5 3.3 5 5 C3.35 5 1.7 5 0 5 C0 3.35 0 1.7 0 0 Z " fill="#F4FCFA" transform="translate(125,27)"/>
<path d="M0 0 C1.65 0 3.3 0 5 0 C5 1.65 5 3.3 5 5 C3.35 5 1.7 5 0 5 C0 3.35 0 1.7 0 0 Z " fill="#F4F9F9" transform="translate(106,27)"/>
<path d="M0 0 C1.65 0 3.3 0 5 0 C5 1.65 5 3.3 5 5 C3.35 5 1.7 5 0 5 C0 3.35 0 1.7 0 0 Z " fill="#F6FAFA" transform="translate(169,27)"/>
<path d="M0 0 C1.65 0 3.3 0 5 0 C5 1.65 5 3.3 5 5 C3.35 5 1.7 5 0 5 C0 3.35 0 1.7 0 0 Z " fill="#F4FBFA" transform="translate(144,27)"/>
<path d="M0 0 C1.65 0 3.3 0 5 0 C5 1.65 5 3.3 5 5 C3.35 5 1.7 5 0 5 C0 3.35 0 1.7 0 0 Z " fill="#F5FCFB" transform="translate(175,27)"/>
<path d="M0 0 C1.65 0 3.3 0 5 0 C5 1.65 5 3.3 5 5 C3.35 5 1.7 5 0 5 C0 3.35 0 1.7 0 0 Z " fill="#F5FCFB" transform="translate(163,27)"/>
<path d="M0 0 C1.65 0 3.3 0 5 0 C5 1.65 5 3.3 5 5 C3.35 5 1.7 5 0 5 C0 3.35 0 1.7 0 0 Z " fill="#F5FAFA" transform="translate(150,27)"/>
<path d="M0 0 C1.65 0 3.3 0 5 0 C5 1.65 5 3.3 5 5 C3.35 5 1.7 5 0 5 C0 3.35 0 1.7 0 0 Z " fill="#F3FBFA" transform="translate(194,21)"/>
<path d="M0 0 C1.65 0 3.3 0 5 0 C5 1.65 5 3.3 5 5 C3.35 5 1.7 5 0 5 C0 3.35 0 1.7 0 0 Z " fill="#F3FBFC" transform="translate(188,21)"/>
<path d="M0 0 C1.65 0 3.3 0 5 0 C5 1.65 5 3.3 5 5 C3.35 5 1.7 5 0 5 C0 3.35 0 1.7 0 0 Z " fill="#F6FBFD" transform="translate(163,21)"/>
<path d="M0 0 C1.65 0 3.3 0 5 0 C5 1.65 5 3.3 5 5 C3.35 5 1.7 5 0 5 C0 3.35 0 1.7 0 0 Z " fill="#F6FCFC" transform="translate(150,21)"/>
<path d="M0 0 C1.65 0 3.3 0 5 0 C5 1.65 5 3.3 5 5 C3.35 5 1.7 5 0 5 C0 3.35 0 1.7 0 0 Z " fill="#F4FCFC" transform="translate(144,21)"/>
<path d="M0 0 C1.65 0 3.3 0 5 0 C5 1.65 5 3.3 5 5 C3.35 5 1.7 5 0 5 C0 3.35 0 1.7 0 0 Z " fill="#F3FAFC" transform="translate(138,21)"/>
<path d="M0 0 C1.65 0 3.3 0 5 0 C5 1.65 5 3.3 5 5 C3.35 5 1.7 5 0 5 C0 3.35 0 1.7 0 0 Z " fill="#F4FBFC" transform="translate(131,21)"/>
<path d="M0 0 C1.65 0 3.3 0 5 0 C5 1.65 5 3.3 5 5 C3.35 5 1.7 5 0 5 C0 3.35 0 1.7 0 0 Z " fill="#F4FBFE" transform="translate(119,21)"/>
<path d="M0 0 C1.65 0 3.3 0 5 0 C5 1.65 5 3.3 5 5 C3.35 5 1.7 5 0 5 C0 3.35 0 1.7 0 0 Z " fill="#F2F6F6" transform="translate(106,21)"/>
<path d="M0 0 C1.65 0 3.3 0 5 0 C5 1.65 5 3.3 5 5 C3.35 5 1.7 5 0 5 C0 3.35 0 1.7 0 0 Z " fill="#F0F6F8" transform="translate(200,21)"/>
<path d="M0 0 C1.65 0 3.3 0 5 0 C5 1.65 5 3.3 5 5 C3.35 5 1.7 5 0 5 C0 3.35 0 1.7 0 0 Z " fill="#F7FCFC" transform="translate(175,21)"/>
<path d="M0 0 C1.65 0 3.3 0 5 0 C5 1.65 5 3.3 5 5 C3.35 5 1.7 5 0 5 C0 3.35 0 1.7 0 0 Z " fill="#F6FAFB" transform="translate(169,21)"/>
<path d="M0 0 C1.65 0 3.3 0 5 0 C5 1.65 5 3.3 5 5 C3.35 5 1.7 5 0 5 C0 3.35 0 1.7 0 0 Z " fill="#F5FBFC" transform="translate(125,21)"/>
<path d="M0 0 C1.65 0 3.3 0 5 0 C5 1.65 5 3.3 5 5 C3.35 5 1.7 5 0 5 C0 3.35 0 1.7 0 0 Z " fill="#F0F8F9" transform="translate(112,21)"/>
<path d="M0 0 C1.65 0 3.3 0 5 0 C5 1.65 5 3.3 5 5 C3.35 5 1.7 5 0 5 C0 3.35 0 1.7 0 0 Z " fill="#E0E5EA" transform="translate(106,16)"/>
<path d="M0 0 C1.98 0 3.96 0 6 0 C6 1.32 6 2.64 6 4 C4.02 4 2.04 4 0 4 C0 2.68 0 1.36 0 0 Z " fill="#F2F4FA" transform="translate(137,81)"/>
<path d="M0 0 C1.98 0 3.96 0 6 0 C6 1.32 6 2.64 6 4 C4.02 4 2.04 4 0 4 C0 2.68 0 1.36 0 0 Z " fill="#F5F8FB" transform="translate(137,75)"/>
<path d="M0 0 C1.32 0 2.64 0 4 0 C4 1.65 4 3.3 4 5 C2.35 5 0.7 5 -1 5 C-0.67 3.35 -0.34 1.7 0 0 Z " fill="#F6F7FA" transform="translate(132,63)"/>
<path d="M0 0 C2.97 0.495 2.97 0.495 6 1 C6 1.33 6 1.66 6 2 C4.35 2 2.7 2 1 2 C1 3.65 1 5.3 1 7 C2.65 7 4.3 7 6 7 C6 7.33 6 7.66 6 8 C1.98195309 8.84098656 -1.01803543 9.05404945 -5 8 C-5 7.67 -5 7.34 -5 7 C-3.35 7 -1.7 7 0 7 C0 4.69 0 2.38 0 0 Z " fill="#C5D7E3" transform="translate(174,55)"/>
<path d="M0 0 C1.98 0 3.96 0 6 0 C6 1.32 6 2.64 6 4 C4.02 4 2.04 4 0 4 C0 2.68 0 1.36 0 0 Z " fill="#F6F9FA" transform="translate(200,27)"/>
<path d="M0 0 C1.98 0 3.96 0 6 0 C6 1.32 6 2.64 6 4 C4.02 4 2.04 4 0 4 C0 2.68 0 1.36 0 0 Z " fill="#F6FAFC" transform="translate(181,27)"/>
<path d="M0 0 C1.98 0 3.96 0 6 0 C6 1.32 6 2.64 6 4 C4.02 4 2.04 4 0 4 C0 2.68 0 1.36 0 0 Z " fill="#E4EEF3" transform="translate(156,16)"/>
<path d="M0 0 C1.98 0 3.96 0 6 0 C6 1.32 6 2.64 6 4 C4.02 4 2.04 4 0 4 C0 2.68 0 1.36 0 0 Z " fill="#E3EBF1" transform="translate(181,16)"/>
<path d="M0 0 C2.475 0.495 2.475 0.495 5 1 C5 2.32 5 3.64 5 5 C3.35 5 1.7 5 0 5 C0 3.35 0 1.7 0 0 Z " fill="#ECEBEA" transform="translate(175,128)"/>
<path d="M0 0 C2.475 0.495 2.475 0.495 5 1 C5 2.32 5 3.64 5 5 C3.35 5 1.7 5 0 5 C0 3.35 0 1.7 0 0 Z " fill="#F1F0F0" transform="translate(175,122)"/>
<path d="M0 0 C1.65 0 3.3 0 5 0 C5 1.65 5 3.3 5 5 C3.35 4.67 1.7 4.34 0 4 C0 2.68 0 1.36 0 0 Z " fill="#F9FCFA" transform="translate(175,75)"/>
<path d="M0 0 C1.65 0 3.3 0 5 0 C5 1.32 5 2.64 5 4 C3.35 4.33 1.7 4.66 0 5 C0 3.35 0 1.7 0 0 Z " fill="#FAFAFB" transform="translate(131,57)"/>
<path d="M0 0 C1.65 0 3.3 0 5 0 C5 1.65 5 3.3 5 5 C3.35 4.67 1.7 4.34 0 4 C0 2.68 0 1.36 0 0 Z " fill="#FAFBFA" transform="translate(175,45)"/>
<path d="M0 0 C1.65 0 3.3 0 5 0 C5 1.65 5 3.3 5 5 C3.35 4.67 1.7 4.34 0 4 C0 2.68 0 1.36 0 0 Z " fill="#EDF3F4" transform="translate(100,27)"/>
<path d="M0 0 C1.65 0 3.3 0 5 0 C5 1.32 5 2.64 5 4 C3.35 4 1.7 4 0 4 C0 2.68 0 1.36 0 0 Z " fill="#F2F3F4" transform="translate(175,111)"/>
<path d="M0 0 C1.65 0 3.3 0 5 0 C5 1.32 5 2.64 5 4 C3.35 4 1.7 4 0 4 C0 2.68 0 1.36 0 0 Z " fill="#ECF0F3" transform="translate(169,111)"/>
<path d="M0 0 C0 2 0 4 0 6 C-1.32 6 -2.64 6 -4 6 C-4 4.35 -4 2.7 -4 1 C-2.68 0.67 -1.36 0.34 0 0 Z " fill="#DDE8EF" transform="translate(141,103)"/>
<path d="M0 0 C1.65 0 3.3 0 5 0 C5 1.32 5 2.64 5 4 C3.35 4 1.7 4 0 4 C0 2.68 0 1.36 0 0 Z " fill="#F1EDF6" transform="translate(131,99)"/>
<path d="M0 0 C1.65 0 3.3 0 5 0 C5 1.32 5 2.64 5 4 C3.35 4 1.7 4 0 4 C0 2.68 0 1.36 0 0 Z " fill="#ECF5FB" transform="translate(137,93)"/>
<path d="M0 0 C1.65 0 3.3 0 5 0 C5 1.32 5 2.64 5 4 C3.35 4 1.7 4 0 4 C0 2.68 0 1.36 0 0 Z " fill="#F7F8F5" transform="translate(175,93)"/>
<path d="M0 0 C1.65 0 3.3 0 5 0 C5 1.32 5 2.64 5 4 C3.35 4 1.7 4 0 4 C0 2.68 0 1.36 0 0 Z " fill="#F3F1F7" transform="translate(131,93)"/>
<path d="M0 0 C1.65 0 3.3 0 5 0 C5 1.32 5 2.64 5 4 C3.35 4 1.7 4 0 4 C0 2.68 0 1.36 0 0 Z " fill="#F0F7FB" transform="translate(137,87)"/>
<path d="M0 0 C1.65 0 3.3 0 5 0 C5 1.32 5 2.64 5 4 C3.35 4 1.7 4 0 4 C0 2.68 0 1.36 0 0 Z " fill="#F4F3F8" transform="translate(131,87)"/>
<path d="M0 0 C1.65 0 3.3 0 5 0 C5 1.32 5 2.64 5 4 C3.35 4 1.7 4 0 4 C0 2.68 0 1.36 0 0 Z " fill="#F8F9F7" transform="translate(175,87)"/>
<path d="M0 0 C1.65 0 3.3 0 5 0 C5 1.32 5 2.64 5 4 C3.35 4 1.7 4 0 4 C0 2.68 0 1.36 0 0 Z " fill="#F7FCFA" transform="translate(175,81)"/>
<path d="M0 0 C1.65 0 3.3 0 5 0 C5 1.32 5 2.64 5 4 C3.35 4 1.7 4 0 4 C0 2.68 0 1.36 0 0 Z " fill="#F5F9FB" transform="translate(169,81)"/>
<path d="M0 0 C1.65 0 3.3 0 5 0 C5 1.32 5 2.64 5 4 C3.35 4 1.7 4 0 4 C0 2.68 0 1.36 0 0 Z " fill="#F8FAFD" transform="translate(144,81)"/>
<path d="M0 0 C1.65 0 3.3 0 5 0 C5 1.32 5 2.64 5 4 C3.35 4 1.7 4 0 4 C0 2.68 0 1.36 0 0 Z " fill="#F7F9FD" transform="translate(163,81)"/>
<path d="M0 0 C1.65 0 3.3 0 5 0 C5 1.32 5 2.64 5 4 C3.35 4 1.7 4 0 4 C0 2.68 0 1.36 0 0 Z " fill="#F7FCFD" transform="translate(150,81)"/>
<path d="M0 0 C1.65 0 3.3 0 5 0 C5 1.32 5 2.64 5 4 C3.35 4 1.7 4 0 4 C0 2.68 0 1.36 0 0 Z " fill="#F2F3FB" transform="translate(131,81)"/>
<path d="M0 0 C1.65 0 3.3 0 5 0 C5 1.32 5 2.64 5 4 C3.35 4 1.7 4 0 4 C0 2.68 0 1.36 0 0 Z " fill="#F7FCFB" transform="translate(144,75)"/>
<path d="M0 0 C1.65 0 3.3 0 5 0 C5 1.32 5 2.64 5 4 C3.35 4 1.7 4 0 4 C0 2.68 0 1.36 0 0 Z " fill="#F7F5FC" transform="translate(131,75)"/>
<path d="M0 0 C1.65 0 3.3 0 5 0 C5 1.32 5 2.64 5 4 C3.35 4 1.7 4 0 4 C0 2.68 0 1.36 0 0 Z " fill="#FAFBFA" transform="translate(169,75)"/>
<path d="M0 0 C1.65 0 3.3 0 5 0 C5 1.32 5 2.64 5 4 C3.35 4 1.7 4 0 4 C0 2.68 0 1.36 0 0 Z " fill="#F7FAFB" transform="translate(156,75)"/>
<path d="M0 0 C1.65 0 3.3 0 5 0 C5 1.32 5 2.64 5 4 C3.35 4 1.7 4 0 4 C0 2.68 0 1.36 0 0 Z " fill="#F9FBFB" transform="translate(150,75)"/>
<path d="M0 0 C1.65 0 3.3 0 5 0 C5 1.32 5 2.64 5 4 C3.35 4 1.7 4 0 4 C0 2.68 0 1.36 0 0 Z " fill="#F8F7F9" transform="translate(131,69)"/>
<path d="M0 0 C1.65 0 3.3 0 5 0 C5 1.32 5 2.64 5 4 C3.35 4 1.7 4 0 4 C0 2.68 0 1.36 0 0 Z " fill="#F8FDFB" transform="translate(163,69)"/>
<path d="M0 0 C1.65 0 3.3 0 5 0 C5 1.32 5 2.64 5 4 C3.35 4 1.7 4 0 4 C0 2.68 0 1.36 0 0 Z " fill="#F6FDFD" transform="translate(156,69)"/>
<path d="M0 0 C1.65 0 3.3 0 5 0 C5 1.32 5 2.64 5 4 C3.35 4 1.7 4 0 4 C0 2.68 0 1.36 0 0 Z " fill="#FAFDFB" transform="translate(163,63)"/>
<path d="M0 0 C1.65 0 3.3 0 5 0 C5 1.32 5 2.64 5 4 C3.35 4 1.7 4 0 4 C0 2.68 0 1.36 0 0 Z " fill="#F9FBFB" transform="translate(125,57)"/>
<path d="M0 0 C1.65 0 3.3 0 5 0 C5 1.32 5 2.64 5 4 C3.35 4 1.7 4 0 4 C0 2.68 0 1.36 0 0 Z " fill="#F8FBFC" transform="translate(119,57)"/>
<path d="M0 0 C1.65 0 3.3 0 5 0 C5 1.32 5 2.64 5 4 C3.35 4 1.7 4 0 4 C0 2.68 0 1.36 0 0 Z " fill="#F9F8F8" transform="translate(106,57)"/>
<path d="M0 0 C1.65 0 3.3 0 5 0 C5 1.32 5 2.64 5 4 C3.35 4 1.7 4 0 4 C0 2.68 0 1.36 0 0 Z " fill="#FAFBFB" transform="translate(163,57)"/>
<path d="M0 0 C1.65 0 3.3 0 5 0 C5 1.32 5 2.64 5 4 C3.35 4 1.7 4 0 4 C0 2.68 0 1.36 0 0 Z " fill="#FAFCFB" transform="translate(150,57)"/>
<path d="M0 0 C1.65 0 3.3 0 5 0 C5 1.32 5 2.64 5 4 C3.35 4 1.7 4 0 4 C0 2.68 0 1.36 0 0 Z " fill="#F8FCFB" transform="translate(144,57)"/>
<path d="M0 0 C1.65 0 3.3 0 5 0 C5 1.32 5 2.64 5 4 C3.35 4 1.7 4 0 4 C0 2.68 0 1.36 0 0 Z " fill="#FCFAFB" transform="translate(112,57)"/>
<path d="M0 0 C1.65 0 3.3 0 5 0 C5 1.32 5 2.64 5 4 C3.35 4 1.7 4 0 4 C0 2.68 0 1.36 0 0 Z " fill="#F9FDFC" transform="translate(131,51)"/>
<path d="M0 0 C1.65 0 3.3 0 5 0 C5 1.32 5 2.64 5 4 C3.35 4 1.7 4 0 4 C0 2.68 0 1.36 0 0 Z " fill="#FAFCFB" transform="translate(169,51)"/>
<path d="M0 0 C1.65 0 3.3 0 5 0 C5 1.32 5 2.64 5 4 C3.35 4 1.7 4 0 4 C0 2.68 0 1.36 0 0 Z " fill="#FAFCFB" transform="translate(163,51)"/>
<path d="M0 0 C1.65 0 3.3 0 5 0 C5 1.32 5 2.64 5 4 C3.35 4 1.7 4 0 4 C0 2.68 0 1.36 0 0 Z " fill="#F5FBFA" transform="translate(137,51)"/>
<path d="M0 0 C1.65 0 3.3 0 5 0 C5 1.32 5 2.64 5 4 C3.35 4 1.7 4 0 4 C0 2.68 0 1.36 0 0 Z " fill="#F9FDFC" transform="translate(125,51)"/>
<path d="M0 0 C1.65 0 3.3 0 5 0 C5 1.32 5 2.64 5 4 C3.35 4 1.7 4 0 4 C0 2.68 0 1.36 0 0 Z " fill="#F7FDFA" transform="translate(131,45)"/>
<path d="M0 0 C1.65 0 3.3 0 5 0 C5 1.32 5 2.64 5 4 C3.35 4 1.7 4 0 4 C0 2.68 0 1.36 0 0 Z " fill="#F9FDFD" transform="translate(163,45)"/>
<path d="M0 0 C1.65 0 3.3 0 5 0 C5 1.32 5 2.64 5 4 C3.35 4 1.7 4 0 4 C0 2.68 0 1.36 0 0 Z " fill="#F5FBFD" transform="translate(137,45)"/>
<path d="M0 0 C1.65 0 3.3 0 5 0 C5 1.32 5 2.64 5 4 C3.35 4 1.7 4 0 4 C0 2.68 0 1.36 0 0 Z " fill="#F8FDFC" transform="translate(119,45)"/>
<path d="M0 0 C1.65 0 3.3 0 5 0 C5 1.32 5 2.64 5 4 C3.35 4 1.7 4 0 4 C0 2.68 0 1.36 0 0 Z " fill="#F0F2F4" transform="translate(100,39)"/>
<path d="M0 0 C1.65 0 3.3 0 5 0 C5 1.32 5 2.64 5 4 C3.35 4 1.7 4 0 4 C0 2.68 0 1.36 0 0 Z " fill="#FAFBFA" transform="translate(169,39)"/>
<path d="M0 0 C1.65 0 3.3 0 5 0 C5 1.32 5 2.64 5 4 C3.35 4 1.7 4 0 4 C0 2.68 0 1.36 0 0 Z " fill="#F9FCFC" transform="translate(125,39)"/>
<path d="M0 0 C1.65 0 3.3 0 5 0 C5 1.32 5 2.64 5 4 C3.35 4 1.7 4 0 4 C0 2.68 0 1.36 0 0 Z " fill="#F9FCFB" transform="translate(112,39)"/>
<path d="M0 0 C1.65 0 3.3 0 5 0 C5 1.32 5 2.64 5 4 C3.35 4 1.7 4 0 4 C0 2.68 0 1.36 0 0 Z " fill="#FAFCFB" transform="translate(106,39)"/>
<path d="M0 0 C1.65 0 3.3 0 5 0 C5 1.32 5 2.64 5 4 C3.35 4 1.7 4 0 4 C0 2.68 0 1.36 0 0 Z " fill="#FAFDFC" transform="translate(163,39)"/>
<path d="M0 0 C1.65 0 3.3 0 5 0 C5 1.32 5 2.64 5 4 C3.35 4 1.7 4 0 4 C0 2.68 0 1.36 0 0 Z " fill="#F9FEFD" transform="translate(156,39)"/>
<path d="M0 0 C1.65 0 3.3 0 5 0 C5 1.32 5 2.64 5 4 C3.35 4 1.7 4 0 4 C0 2.68 0 1.36 0 0 Z " fill="#FAFDFC" transform="translate(150,39)"/>
<path d="M0 0 C1.65 0 3.3 0 5 0 C5 1.32 5 2.64 5 4 C3.35 4 1.7 4 0 4 C0 2.68 0 1.36 0 0 Z " fill="#F9FDFB" transform="translate(144,39)"/>
<path d="M0 0 C1.65 0 3.3 0 5 0 C5 1.32 5 2.64 5 4 C3.35 4 1.7 4 0 4 C0 2.68 0 1.36 0 0 Z " fill="#F9FDFC" transform="translate(119,39)"/>
<path d="M0 0 C1.65 0 3.3 0 5 0 C5 1.32 5 2.64 5 4 C3.35 4 1.7 4 0 4 C0 2.68 0 1.36 0 0 Z " fill="#F6FBFB" transform="translate(137,33)"/>
<path d="M0 0 C1.65 0 3.3 0 5 0 C5 1.32 5 2.64 5 4 C3.35 4 1.7 4 0 4 C0 2.68 0 1.36 0 0 Z " fill="#EEF3F7" transform="translate(100,33)"/>
<path d="M0 0 C1.65 0 3.3 0 5 0 C5 1.32 5 2.64 5 4 C3.35 4 1.7 4 0 4 C0 2.68 0 1.36 0 0 Z " fill="#FAFCFB" transform="translate(112,33)"/>
<path d="M0 0 C1.65 0 3.3 0 5 0 C5 1.32 5 2.64 5 4 C3.35 4 1.7 4 0 4 C0 2.68 0 1.36 0 0 Z " fill="#F9FBFA" transform="translate(106,33)"/>
<path d="M0 0 C1.65 0 3.3 0 5 0 C5 1.32 5 2.64 5 4 C3.35 4 1.7 4 0 4 C0 2.68 0 1.36 0 0 Z " fill="#F8FCFA" transform="translate(163,33)"/>
<path d="M0 0 C1.65 0 3.3 0 5 0 C5 1.32 5 2.64 5 4 C3.35 4 1.7 4 0 4 C0 2.68 0 1.36 0 0 Z " fill="#F7FDFB" transform="translate(156,33)"/>
<path d="M0 0 C1.65 0 3.3 0 5 0 C5 1.32 5 2.64 5 4 C3.35 4 1.7 4 0 4 C0 2.68 0 1.36 0 0 Z " fill="#F9FDFB" transform="translate(150,33)"/>
<path d="M0 0 C1.65 0 3.3 0 5 0 C5 1.32 5 2.64 5 4 C3.35 4 1.7 4 0 4 C0 2.68 0 1.36 0 0 Z " fill="#F9FCFB" transform="translate(144,33)"/>
<path d="M0 0 C1.65 0 3.3 0 5 0 C5 1.32 5 2.64 5 4 C3.35 4 1.7 4 0 4 C0 2.68 0 1.36 0 0 Z " fill="#F9FCFA" transform="translate(131,33)"/>
<path d="M0 0 C1.65 0 3.3 0 5 0 C5 1.32 5 2.64 5 4 C3.35 4 1.7 4 0 4 C0 2.68 0 1.36 0 0 Z " fill="#F8FEFB" transform="translate(119,33)"/>
<path d="M0 0 C1.65 0 3.3 0 5 0 C5 1.32 5 2.64 5 4 C3.35 4 1.7 4 0 4 C0 2.68 0 1.36 0 0 Z " fill="#F8FDFB" transform="translate(194,27)"/>
<path d="M0 0 C1.65 0 3.3 0 5 0 C5 1.32 5 2.64 5 4 C3.35 4 1.7 4 0 4 C0 2.68 0 1.36 0 0 Z " fill="#F8FEFC" transform="translate(188,27)"/>
<path d="M0 0 C1.65 0 3.3 0 5 0 C5 1.32 5 2.64 5 4 C3.35 4 1.7 4 0 4 C0 2.68 0 1.36 0 0 Z " fill="#F6FCFC" transform="translate(138,27)"/>
<path d="M0 0 C1.65 0 3.3 0 5 0 C5 1.32 5 2.64 5 4 C3.35 4 1.7 4 0 4 C0 2.68 0 1.36 0 0 Z " fill="#F8FDFA" transform="translate(112,27)"/>
<path d="M0 0 C1.65 0 3.3 0 5 0 C5 1.32 5 2.64 5 4 C3.35 4 1.7 4 0 4 C0 2.68 0 1.36 0 0 Z " fill="#ECF1F3" transform="translate(150,16)"/>
<path d="M0 0 C1.65 0 3.3 0 5 0 C5 1.32 5 2.64 5 4 C3.35 4 1.7 4 0 4 C0 2.68 0 1.36 0 0 Z " fill="#E5EBEF" transform="translate(194,16)"/>
<path d="M0 0 C1.65 0 3.3 0 5 0 C5 1.32 5 2.64 5 4 C3.35 4 1.7 4 0 4 C0 2.68 0 1.36 0 0 Z " fill="#EDF1F4" transform="translate(175,16)"/>
<path d="M0 0 C1.65 0 3.3 0 5 0 C5 1.32 5 2.64 5 4 C3.35 4 1.7 4 0 4 C0 2.68 0 1.36 0 0 Z " fill="#EDF1F3" transform="translate(169,16)"/>
<path d="M0 0 C1.65 0 3.3 0 5 0 C5 1.32 5 2.64 5 4 C3.35 4 1.7 4 0 4 C0 2.68 0 1.36 0 0 Z " fill="#EDF0F4" transform="translate(144,16)"/>
<path d="M0 0 C1.65 0 3.3 0 5 0 C5 1.32 5 2.64 5 4 C3.35 4 1.7 4 0 4 C0 2.68 0 1.36 0 0 Z " fill="#ECF3F6" transform="translate(125,16)"/>
<path d="M0 0 C1.65 0 3.3 0 5 0 C5 1.32 5 2.64 5 4 C3.35 4 1.7 4 0 4 C0 2.68 0 1.36 0 0 Z " fill="#E2E8EE" transform="translate(200,16)"/>
<path d="M0 0 C1.65 0 3.3 0 5 0 C5 1.32 5 2.64 5 4 C3.35 4 1.7 4 0 4 C0 2.68 0 1.36 0 0 Z " fill="#E6EFF3" transform="translate(188,16)"/>
<path d="M0 0 C1.65 0 3.3 0 5 0 C5 1.32 5 2.64 5 4 C3.35 4 1.7 4 0 4 C0 2.68 0 1.36 0 0 Z " fill="#ECF2F5" transform="translate(163,16)"/>
<path d="M0 0 C1.65 0 3.3 0 5 0 C5 1.32 5 2.64 5 4 C3.35 4 1.7 4 0 4 C0 2.68 0 1.36 0 0 Z " fill="#E9F0F3" transform="translate(138,16)"/>
<path d="M0 0 C1.65 0 3.3 0 5 0 C5 1.32 5 2.64 5 4 C3.35 4 1.7 4 0 4 C0 2.68 0 1.36 0 0 Z " fill="#EAF2F5" transform="translate(131,16)"/>
<path d="M0 0 C1.65 0 3.3 0 5 0 C5 1.32 5 2.64 5 4 C3.35 4 1.7 4 0 4 C0 2.68 0 1.36 0 0 Z " fill="#E8F2F7" transform="translate(119,16)"/>
<path d="M0 0 C1.65 0 3.3 0 5 0 C5 1.32 5 2.64 5 4 C3.35 4 1.7 4 0 4 C0 2.68 0 1.36 0 0 Z " fill="#E7EEF1" transform="translate(112,16)"/>
<path d="M0 0 C1.32 0 2.64 0 4 0 C3.67 1.65 3.34 3.3 3 5 C2.01 5 1.02 5 0 5 C0 3.35 0 1.7 0 0 Z " fill="#E2E9EB" transform="translate(170,91)"/>
</svg>
